<svg width="12" height="13" viewBox="0 0 12 13" fill="none" xmlns="http://www.w3.org/2000/svg">
<path d="M7.70058 1.76611L10.9324 4.99798C11.9382 4.00921 12.0003 2.68708 11.0059 1.69831C10.0115 0.709541 8.695 0.760392 7.70058 1.76611ZM7.09036 2.38197C6.50275 2.96394 6.2372 3.64195 6.31065 4.30866L1.06734 9.93617C0.84134 10.1848 0.81874 10.5012 1.0956 10.8063L0.344131 11.7612C0.253729 11.8742 0.259379 12.0437 0.378031 12.1623L0.541885 12.3262C0.660537 12.4448 0.82439 12.4561 0.948693 12.3544L1.90356 11.603C2.19172 11.8798 2.51942 11.8572 2.75673 11.6312L5.56483 9.02086V12.0719C5.56483 12.394 5.81909 12.6426 6.14115 12.6426C6.4632 12.6426 6.71746 12.394 6.71746 12.0719V8.73835L6.67791 7.99254L8.38989 6.40485C9.05095 6.47265 9.74027 6.20145 10.3166 5.61384L7.09036 2.38197ZM1.76796 10.4221L6.66096 5.26918C6.75701 5.41608 6.87001 5.55734 7.00561 5.69294C7.13556 5.82854 7.27682 5.94719 7.41807 6.04325L2.28212 10.9362L1.76796 10.4221Z" fill="white"/>
</svg>
