<svg width="18" height="19" viewBox="0 0 18 19" fill="none" xmlns="http://www.w3.org/2000/svg">
<path d="M11.6455 1.85839L16.6728 6.88573C18.2373 5.34765 18.334 3.29101 16.7871 1.75292C15.2402 0.214835 13.1924 0.293937 11.6455 1.85839ZM10.6963 2.8164C9.78222 3.72167 9.36914 4.77636 9.48339 5.81347L1.32714 14.5674C0.975581 14.9541 0.940425 15.4463 1.37109 15.9209L0.202144 17.4062C0.0615188 17.582 0.0703079 17.8457 0.254878 18.0303L0.509761 18.2851C0.694331 18.4697 0.949214 18.4873 1.14257 18.3291L2.62793 17.1601C3.07617 17.5908 3.58593 17.5557 3.95507 17.2041L8.32324 13.1435V17.8896C8.32324 18.3906 8.71875 18.7773 9.21972 18.7773C9.7207 18.7773 10.1162 18.3906 10.1162 17.8896V12.7041L10.0547 11.5439L12.7178 9.07421C13.7461 9.17968 14.8184 8.7578 15.7148 7.84374L10.6963 2.8164ZM2.41699 15.3232L10.0283 7.30761C10.1777 7.53612 10.3535 7.75585 10.5644 7.96679C10.7666 8.17773 10.9863 8.3623 11.206 8.51171L3.21679 16.123L2.41699 15.3232Z" fill="#1C1C1E"/>
</svg>
