<svg width="21" height="17" viewBox="0 0 21 17" fill="none" xmlns="http://www.w3.org/2000/svg">
<path d="M0.287109 7.89844C0.287109 8.50488 0.779297 8.99707 1.38574 8.99707C2.00098 8.99707 2.48438 8.50488 2.48438 7.89844V7.32715C2.48438 5.89453 3.46875 4.97168 4.96289 4.97168H11.5635V6.80859C11.5635 7.33594 11.8975 7.66992 12.4336 7.66992C12.6709 7.66992 12.8906 7.58203 13.0664 7.44141L16.5293 4.55859C16.96 4.21582 16.9512 3.63574 16.5293 3.28418L13.0664 0.392578C12.8906 0.243164 12.6709 0.155273 12.4336 0.155273C11.8975 0.155273 11.5635 0.489258 11.5635 1.0166V2.80957H5.13867C2.15918 2.80957 0.287109 4.4707 0.287109 7.11621V7.89844ZM8.75098 10.3066C8.75098 9.7793 8.41699 9.43652 7.88965 9.43652C7.65234 9.43652 7.42383 9.5332 7.24805 9.67383L3.79395 12.5566C3.36328 12.8994 3.36328 13.4707 3.79395 13.8311L7.24805 16.7227C7.42383 16.8721 7.65234 16.96 7.88965 16.96C8.41699 16.96 8.75098 16.626 8.75098 16.0986V14.2969H15.1846C18.1641 14.2969 20.0273 12.627 20.0273 9.99023V9.20801C20.0273 8.59277 19.5439 8.10059 18.9287 8.10059C18.3223 8.10059 17.8301 8.59277 17.8301 9.20801V9.7793C17.8301 11.2031 16.8545 12.1348 15.3516 12.1348H8.75098V10.3066Z" fill="#707070"/>
</svg>
