<svg width="22" height="18" viewBox="0 0 22 18" fill="none" xmlns="http://www.w3.org/2000/svg">
<path d="M0 13.6582C0 14.2822 0.46582 14.7217 1.13379 14.7217H3.20801C4.77246 14.7217 5.72168 14.2559 6.78516 12.9902L8.78027 10.6172L10.7402 12.9551C11.8301 14.2559 12.9023 14.7305 14.4756 14.7305H16.04V16.6553C16.04 17.1826 16.374 17.5166 16.9102 17.5166C17.1475 17.5166 17.3672 17.4287 17.543 17.2881L21.0059 14.4053C21.4365 14.0537 21.4277 13.4824 21.0059 13.1309L17.543 10.2393C17.3672 10.0898 17.1475 10.002 16.9102 10.002C16.374 10.002 16.04 10.3359 16.04 10.8633V12.5859H14.5195C13.5264 12.5859 12.9111 12.2607 12.1904 11.4082L10.1514 8.99121L12.1992 6.55664C12.9287 5.68652 13.4912 5.3877 14.4668 5.3877H16.04V7.13672C16.04 7.66406 16.374 7.99805 16.9102 7.99805C17.1475 7.99805 17.3672 7.91016 17.543 7.76953L21.0059 4.88672C21.4365 4.53516 21.4277 3.96387 21.0059 3.6123L17.543 0.720703C17.3672 0.571289 17.1475 0.483398 16.9102 0.483398C16.374 0.483398 16.04 0.817383 16.04 1.34473V3.24316H14.4844C12.8584 3.24316 11.8301 3.7002 10.6787 5.08887L8.78027 7.34766L6.78516 4.9834C5.72168 3.71777 4.71094 3.24316 3.14648 3.24316H1.13379C0.46582 3.24316 0 3.69141 0 4.31543C0 4.93945 0.474609 5.3877 1.13379 5.3877H3.06738C4.0166 5.3877 4.64941 5.7041 5.37012 6.56543L7.40039 8.98242L5.37012 11.4082C4.64062 12.2695 4.06934 12.5859 3.12891 12.5859H1.13379C0.474609 12.5859 0 13.0342 0 13.6582Z" fill="#707070"/>
</svg>
