<svg width="18" height="17" viewBox="0 0 18 17" fill="none" xmlns="http://www.w3.org/2000/svg">
<path d="M10.5381 16.5381C11.1973 16.5381 11.6807 16.0459 11.6807 15.3955V1.97461C11.6807 1.31543 11.1973 0.788086 10.5205 0.788086C10.0723 0.788086 9.74707 0.972656 9.27246 1.43848L5.59863 4.875C5.5459 4.92773 5.47559 4.9541 5.39648 4.9541H2.90918C1.6084 4.9541 0.905273 5.6748 0.905273 7.03711V10.3066C0.905273 11.6689 1.6084 12.3896 2.90918 12.3896H5.39648C5.47559 12.3896 5.53711 12.416 5.59863 12.4688L9.27246 15.9316C9.71191 16.3535 10.0811 16.5381 10.5381 16.5381ZM14.8096 12.5742C15.1875 12.8203 15.6797 12.7324 15.9521 12.3457C16.6641 11.3965 17.0859 10.0518 17.0859 8.6543C17.0859 7.25684 16.6641 5.9209 15.9521 4.96289C15.6797 4.57617 15.1875 4.48828 14.8096 4.74316C14.3789 5.02441 14.2998 5.54297 14.6426 6.05273C15.126 6.74707 15.3984 7.67871 15.3984 8.6543C15.3984 9.62988 15.126 10.5527 14.6426 11.2559C14.2998 11.7656 14.3789 12.2842 14.8096 12.5742Z" fill="#1C1C1E"/>
</svg>
